REM MD5 1149863a064ace314cd80dde46860226
FILE "Euro Demo 20 (Europe).bin" BINARY
  TRACK 01 MODE2/2352
    INDEX 01 00:00:00
  TRACK 02 AUDIO
    INDEX 00 10:54:56
    INDEX 01 10:56:56
  TRACK 03 AUDIO
    INDEX 00 11:59:43
    INDEX 01 12:01:43
REM LEADOUT 15:11:52
